
<svg width="140" height="140" viewBox="0 0 140 140" fill="none" xmlns="http://www.w3.org/2000/svg">
<g clip-path="url(#clip0_2011_463)">
<path d="M137.124 121.107L74.1716 13.9475C72.2974 10.7573 67.7026 10.7573 65.8284 13.9475L2.87601 121.107C0.970703 124.351 3.29848 128.445 7.04758 128.445H132.952C136.702 128.445 139.029 124.35 137.124 121.107Z" fill="#464655"/>
<path d="M84.3262 31.2336C64.3229 45.6684 51.2906 69.1633 51.2906 95.7159C51.2906 107.388 53.8273 118.461 58.3464 128.445H132.952C136.701 128.445 139.029 124.351 137.124 121.107L84.3262 31.2336Z" fill="#5B5D6E"/>
<path d="M68.9921 27.0238L16.4423 116.476C15.7617 117.634 16.5971 119.094 17.9408 119.094H122.059C123.402 119.094 124.238 117.634 123.557 116.476L71.0079 27.0238C70.5559 26.2547 69.4438 26.2547 68.9921 27.0238Z" fill="#FFDC64"/>
<path d="M51.2906 95.7157C51.2906 103.853 52.5191 111.702 54.7909 119.094H122.059C123.403 119.094 124.238 117.634 123.558 116.476L76.9893 37.2058C61.1948 51.7325 51.2906 72.5646 51.2906 95.7157Z" fill="#FFF082"/>
<path d="M70.0085 107.404C72.5907 107.404 74.684 105.311 74.684 102.729C74.684 100.147 72.5907 98.0533 70.0085 98.0533C67.4262 98.0533 65.3329 100.147 65.3329 102.729C65.3329 105.311 67.4262 107.404 70.0085 107.404Z" fill="#464655"/>
<path d="M72.5542 90.8939L74.4732 58.1648H65.5408L67.46 90.8939H72.5542Z" fill="#464655"/>
<path d="M139.013 119.997L76.0613 12.8373C74.7835 10.6621 72.5176 9.36304 70 9.36304C67.4825 9.36304 65.2168 10.6619 63.939 12.8373L0.986294 119.997C-0.314721 122.212 -0.329214 124.864 0.946372 127.094C2.21622 129.312 4.49696 130.637 7.04731 130.637H132.952C135.503 130.637 137.784 129.312 139.053 127.094C140.33 124.864 140.314 122.211 139.013 119.997ZM135.249 124.916C135.019 125.318 134.334 126.253 132.952 126.253H7.04758C5.66536 126.253 4.98094 125.318 4.75071 124.916C4.26563 124.068 4.2711 123.059 4.76602 122.217L67.7182 15.0576C68.4133 13.8745 69.5456 13.7465 69.9997 13.7465C70.4539 13.7465 71.5862 13.8742 72.2813 15.0576L135.234 122.217C135.729 123.059 135.734 124.068 135.249 124.916Z" fill="black"/>
<path d="M79.3026 45.4702C79.7109 46.165 80.4426 46.5519 81.1945 46.5519C81.5719 46.5519 81.9542 46.4546 82.3028 46.2498C83.3462 45.6367 83.6954 44.2936 83.0824 43.2499L81.2451 40.1226C80.6321 39.0789 79.2887 38.7302 78.2452 39.343C77.2018 39.956 76.8526 41.2992 77.4657 42.3429L79.3026 45.4702Z" fill="black"/>
<path d="M87.7483 51.1927C87.135 50.149 85.7919 49.8001 84.7484 50.4131C83.7047 51.0262 83.3558 52.3693 83.9689 53.4128L121.266 116.902H18.734L70.0003 29.6349L72.7842 34.3736C73.3972 35.4173 74.7406 35.7659 75.784 35.1531C76.8278 34.5401 77.1767 33.197 76.5636 32.1533L71.89 24.1976C71.4963 23.5274 70.7771 23.1161 70.0003 23.1161C69.2232 23.1161 68.504 23.5277 68.1106 24.1976L13.0146 117.983C12.6164 118.661 12.6118 119.5 13.0023 120.182C13.3927 120.864 14.1184 121.285 14.9043 121.285H125.095C125.881 121.285 126.607 120.864 126.997 120.182C127.388 119.5 127.383 118.661 126.985 117.983L87.7483 51.1927Z" fill="black"/>
<path d="M70.0071 95.8617C66.2205 95.8617 63.1397 98.9422 63.1397 102.729C63.1397 106.516 66.2203 109.596 70.0071 109.596C73.7937 109.596 76.8745 106.516 76.8745 102.729C76.8745 98.9422 73.7939 95.8617 70.0071 95.8617ZM70.0071 105.213C68.6374 105.213 67.5232 104.099 67.5232 102.729C67.5232 101.359 68.6374 100.245 70.0071 100.245C71.3767 100.245 72.491 101.359 72.491 102.729C72.491 104.099 71.3767 105.213 70.0071 105.213Z" fill="black"/>
<path d="M74.6829 56.1192H65.3316C64.7232 56.1192 64.1422 56.3719 63.7276 56.8173C63.3128 57.2627 63.102 57.8602 63.1455 58.4669L65.4834 91.196C65.5651 92.3431 66.5197 93.2318 67.6695 93.2318H72.345C73.4948 93.2318 74.4494 92.3431 74.5312 91.196L76.201 67.8182C76.2872 66.6107 75.3785 65.5624 74.171 65.476C72.9668 65.3906 71.9152 66.2985 71.8288 67.506L70.3044 88.848H69.7102L67.6854 60.5021H74.6826C75.8932 60.5021 76.8743 59.5208 76.8743 58.3105C76.8743 57.1003 75.8932 56.1192 74.6829 56.1192Z" fill="black"/>
</g>
<defs>
<clipPath id="clip0_2011_463">
<rect width="140" height="140" fill="white"/>
</clipPath>
</defs>
</svg>
